<?xml version="1.0" standalone="no"?>
<!DOCTYPE svg PUBLIC "-//W3C//DTD SVG 20010904//EN"
 "http://www.w3.org/TR/2001/REC-SVG-20010904/DTD/svg10.dtd">
<svg version="1.0" xmlns="http://www.w3.org/2000/svg"
 width="192.000000pt" height="192.000000pt" viewBox="0 0 192.000000 192.000000"
 preserveAspectRatio="xMidYMid meet">
<metadata>
Created by potrace 1.16, written by Peter Selinger 2001-2019
</metadata>
<g transform="translate(0.000000,192.000000) scale(0.038866,-0.038020)"
fill="#000000" stroke="none">
<path d="M1863 4589 c-118 -9 -236 -39 -306 -77 -72 -39 -150 -129 -196 -225
-21 -45 -76 -178 -121 -294 l-83 -213 -66 -1 c-148 -1 -201 -25 -201 -90 0
-45 22 -88 83 -162 31 -38 54 -74 52 -80 -2 -7 -20 -64 -39 -128 -54 -180 -66
-261 -66 -443 0 -176 11 -238 57 -336 24 -51 27 -68 33 -244 6 -187 6 -189 32
-211 32 -28 159 -40 306 -30 136 10 152 25 152 149 l0 76 969 0 968 0 6 -79
c9 -142 16 -146 247 -145 180 0 209 5 229 42 5 9 12 98 16 197 6 175 7 182 40
260 46 108 59 200 52 365 -7 157 -23 249 -73 417 l-36 121 51 64 c56 69 91
132 91 166 0 11 -11 34 -24 49 -22 26 -31 29 -136 38 l-113 10 -87 222 c-49
122 -104 255 -124 296 -96 193 -229 265 -535 287 -150 11 -1032 11 -1178 -1z
m1249 -209 c156 -16 233 -64 285 -179 40 -88 163 -392 163 -403 0 -4 -490 -8
-1090 -8 -600 0 -1090 2 -1090 3 0 7 138 343 167 407 44 96 118 153 228 175
102 20 1152 24 1337 5z m-1631 -1195 c15 -8 41 -32 56 -52 24 -31 28 -46 28
-98 0 -51 -4 -67 -27 -97 -56 -73 -155 -92 -228 -44 -69 46 -97 135 -66 210
15 36 71 86 108 98 31 9 94 1 129 -17z m2122 12 c18 -8 49 -33 71 -57 38 -42
38 -43 34 -112 -4 -67 -6 -72 -45 -108 -87 -81 -193 -69 -261 31 -20 29 -23
44 -20 97 4 56 7 66 43 102 55 57 116 72 178 47z m-580 -96 c11 -8 17 -28 17
-52 0 -72 21 -69 -572 -69 -515 0 -529 1 -548 20 -33 33 -21 92 23 110 12 5
253 8 543 7 425 -2 524 -5 537 -16z"/>
<path d="M4169 1777 c-74 -27 -157 -78 -309 -192 -122 -91 -195 -128 -300
-152 -69 -17 -156 -18 -1155 -18 -810 1 -1090 4 -1120 13 -22 6 -71 38 -108
69 -200 170 -249 207 -326 246 l-84 42 -131 0 c-111 0 -142 -4 -205 -24 -151
-50 -303 -181 -378 -326 -21 -41 -35 -76 -32 -79 3 -3 103 8 223 24 120 17
244 30 276 30 53 0 62 -3 91 -32 67 -67 120 -241 105 -342 -9 -58 -33 -127
-54 -154 -22 -29 -48 -35 -335 -77 -126 -18 -231 -36 -234 -38 -22 -22 110
-162 209 -220 134 -80 315 -114 435 -84 93 24 165 65 307 172 165 124 205 148
296 177 l75 23 1085 0 c996 0 1090 -1 1140 -17 66 -21 121 -56 215 -138 93
-81 219 -165 294 -196 86 -34 160 -40 262 -19 177 35 306 112 409 241 55 70
118 179 108 189 -3 3 -106 -8 -229 -25 -123 -16 -242 -32 -264 -35 -103 -13
-191 120 -202 306 -9 142 30 238 106 259 21 5 129 23 242 40 274 40 279 41
279 54 0 23 -122 146 -188 189 -116 78 -199 105 -342 113 -83 4 -103 2 -161
-19z"/>
</g>
</svg>
